<?xml version="1.0" encoding="UTF-8" standalone="no"?>
<svg width="46px" height="51px" viewBox="0 0 46 51" version="1.1" xmlns="http://www.w3.org/2000/svg" xmlns:xlink="http://www.w3.org/1999/xlink">
    <!-- Generator: Sketch 39.1 (31720) - http://www.bohemiancoding.com/sketch -->
    <title>Shape</title>
    <desc>Created with Sketch.</desc>
    <defs></defs>
    <g id="Page-1" stroke="none" stroke-width="1" fill="none" fill-rule="evenodd">
        <path d="M42.5,10.17 L26.5,0.93 C24.3341925,-0.320429565 21.6658075,-0.320429565 19.5,0.93 L3.5,10.17 C1.33486614,11.4200405 0.000777890294,13.729919 0,16.23 L0,34.71 C0.000777890294,37.210081 1.33486614,39.5199595 3.5,40.77 L19.5,50 C21.6658075,51.2504296 24.3341925,51.2504296 26.5,50 L42.5,40.76 C44.6620442,39.5117482 45.9956547,37.2065073 46,34.71 L46,16.23 C45.9992221,13.729919 44.6651339,11.4200405 42.5,10.17 L42.5,10.17 Z M22,29 L22,47.41 C21.9981185,47.9321431 22.1325488,48.445736 22.39,48.9 C21.7310055,48.8163069 21.0952943,48.6021368 20.52,48.27 L4.5,39 C2.96534147,38.1140409 2.01425438,36.4819755 2,34.71 L2,16.23 C2.00004538,14.4437174 2.95303392,12.7931413 4.5,11.9 L20.5,2.66 C22.0470054,1.76683603 23.9529946,1.76683603 25.5,2.66 L41.5,11.9 C42.0865589,12.2433717 42.5969529,12.7027263 43,13.25 C42.4386552,13.2387489 41.8839699,13.3731137 41.39,13.64 L41.39,13.64 L25.39,22.85 C23.270562,24.1739848 21.9878442,26.5010392 22,29 L22,29 Z M31.23,33.91 C30.9847209,33.7968572 30.7198351,33.7323337 30.45,33.72 L29.71,33.72 L29.13,33.72 C28.9894993,33.7113988 28.8511855,33.6810373 28.72,33.63 C28.6169942,33.5874731 28.5296682,33.5141192 28.47,33.42 C28.4032199,33.301321 28.3719784,33.1659409 28.38,33.03 C28.4249498,32.2903417 28.8751808,31.6361599 29.55,31.33 C29.8453633,31.1553593 30.1610606,31.0176615 30.49,30.92 C30.657574,30.8753059 30.8279561,30.8418976 31,30.82 C31.2684011,30.7311937 31.4818337,30.5251209 31.58,30.26 C31.6578172,29.9656806 31.7047375,29.6640501 31.72,29.36 C31.72,29.11 31.72,28.93 31.43,28.96 C31.2752398,28.9776873 31.1216449,29.0043994 30.97,29.04 C30.6683095,29.1117 30.3762469,29.2191253 30.1,29.36 L30.1,27.81 C30.1,27.53 29.88,27.44 29.6,27.6 L28.92,27.99 C28.632916,28.1544135 28.4457277,28.4501711 28.42,28.78 L28.42,30.34 C27.8680249,30.8019499 27.4097505,31.3654578 27.07,32 C26.7166318,32.6431488 26.5341497,33.3661913 26.54,34.1 C26.5218912,34.4392362 26.5694272,34.7787792 26.68,35.1 C26.7632835,35.3286299 26.9130312,35.5271327 27.11,35.67 C27.3227844,35.813344 27.5657353,35.9057338 27.82,35.94 C28.1524429,35.9744561 28.4875571,35.9744561 28.82,35.94 C29.1815491,35.9196802 29.543835,35.9636962 29.89,36.07 C30.13,36.1633333 30.25,36.4 30.25,36.78 C30.251495,37.1882789 30.1178878,37.5855844 29.87,37.91 C29.6002622,38.2606103 29.2594861,38.55027 28.87,38.76 C28.5072513,38.975664 28.1215205,39.1500814 27.72,39.28 C27.572311,39.322993 27.4219977,39.356396 27.27,39.38 C26.81,39.46 26.73,39.58 26.65,39.93 C26.65,40.13 26.54,40.47 26.48,40.79 C26.42,41.11 26.48,41.27 26.73,41.22 C26.98,41.17 27.11,41.16 27.27,41.12 C27.6109867,41.0305653 27.9451665,40.9169442 28.27,40.78 L28.27,42.2 C28.27,42.48 28.49,42.57 28.77,42.41 L29.45,42.02 C29.737084,41.8555865 29.9242723,41.5598289 29.95,41.23 L29.95,39.69 C30.5834813,39.125126 31.1057852,38.4468093 31.49,37.69 C31.8636058,36.9947935 32.0626515,36.2192017 32.07,35.43 C32.085031,35.0807875 32.0018866,34.7343523 31.83,34.43 C31.6847233,34.1971894 31.4767744,34.0100354 31.23,33.89 L31.23,33.91 Z M37.86,36.71 L34.33,38.71 C34.042916,38.8744135 33.8557277,39.1701711 33.83,39.5 L33.83,40.13 C33.83,40.41 34.05,40.5 34.33,40.34 L37.86,38.34 C38.147084,38.1755865 38.3342723,37.8798289 38.36,37.55 L38.36,36.9 C38.36,36.62 38.14,36.53 37.86,36.69 L37.86,36.71 Z" id="Shape" fill="#FFFFFF"></path>
    </g>
</svg>