<?xml version="1.0" encoding="UTF-8" standalone="no"?>
<svg width="40px" height="56px" viewBox="0 0 40 56" version="1.1" xmlns="http://www.w3.org/2000/svg" xmlns:xlink="http://www.w3.org/1999/xlink">
    <!-- Generator: Sketch 39.1 (31720) - http://www.bohemiancoding.com/sketch -->
    <title>Shape</title>
    <desc>Created with Sketch.</desc>
    <defs></defs>
    <g id="Page-1" stroke="none" stroke-width="1" fill="none" fill-rule="evenodd">
        <path d="M20.06,29.73 C18.06,25.21 11.27,21.24 20.06,14.29 C31,5.63 25.41,0 25.41,0 C27.68,8.95 17.41,11.65 13.69,17.22 C11.16,21 14.93,25.1 20.06,29.73 L20.06,29.73 Z M22.5,25.91 C24.03,27.67 23.66,29.03 23.08,29.85 C23.0267672,29.9261463 23.0329823,30.0289241 23.0950029,30.0981009 C23.1570234,30.1672777 23.2585155,30.1846347 23.34,30.14 C24.99,29.14 27.58,26.98 25.4,23.91 C22.67,20.07 20.55,18.09 30.79,11.91 C30.8660247,11.8558553 30.894491,11.756325 30.8585929,11.6701696 C30.8226949,11.5840143 30.7319782,11.5341435 30.64,11.55 C26.38,12.92 15.25,17.55 22.5,25.91 L22.5,25.91 Z M31.5,39.7 C31.4508737,39.801757 31.3830248,39.893353 31.3,39.97 C44.88,36.4 39.89,27.39 33.4,29.67 C33.0488748,29.8001363 32.745508,30.0337637 32.53,30.34 C32.9171524,30.1956831 33.3150428,30.0820001 33.72,30 C37,29.34 41.7,34.42 31.54,39.7 L31.5,39.7 Z M29.1,33.12 C29.889603,32.6136461 30.7189912,32.1721976 31.58,31.8 C31.58,31.8 27.71,32.31 23.58,32.66 C19.2590393,33.0856531 14.9091254,33.1324984 10.58,32.8 C5.4,32.11 10.82,30.57 13.01,30.03 C13.0652285,30.03 13.11,29.9852285 13.11,29.93 C13.11,29.8747715 13.0652285,29.83 13.01,29.83 C10.3483187,29.9758357 7.74323479,30.6560143 5.35,31.83 C-0.22,34.53 19.1,35.76 29.1,33.12 L29.1,33.12 Z M31.9,52.2 C23.7356998,53.6015171 15.4035497,53.729704 7.2,52.58 C7.2,52.58 10.71,54.51 17.12,54.92 C26.88,55.54 39.6,53.68 39.96,49.06 C40,49.05 39.29,50.8 31.9,52.2 L31.9,52.2 Z M17.9,51.6 C20.21,51.6 22.39,51.49 24.39,51.32 C26.39,51.15 28.22,50.91 29.83,50.62 C31.2361466,50.3736626 32.6255218,50.0396782 33.99,49.62 C34.9206573,49.3566896 35.8143796,48.9770255 36.65,48.49 C37.26,48.1 37.58,47.71 37.57,47.33 C37.57,46.61 36.57,46.25 36.57,46.33 C36.57,46.41 36.76,46.33 37.11,46.66 C37.1925074,46.7522084 37.2599987,46.8568199 37.31,46.97 C37.3435484,47.0706104 37.3435484,47.1793896 37.31,47.28 C37.2783916,47.410605 37.2087961,47.5289172 37.11,47.62 C36.9499452,47.7675155 36.7677277,47.8889939 36.57,47.98 C36.2477027,48.131326 35.9131753,48.2551011 35.57,48.35 C34.6305527,48.6187069 33.6753994,48.8291078 32.71,48.98 C31.58,49.17 30.3,49.33 28.92,49.47 C27.54,49.61 26.06,49.72 24.53,49.8 C23,49.88 21.43,49.93 19.86,49.95 C18.29,49.97 16.73,49.95 15.22,49.95 C13.71,49.95 12.22,49.82 10.94,49.69 C9.66,49.56 8.39,49.4 7.33,49.2 C6.43317377,49.0457133 5.55502618,48.7976869 4.71,48.46 C4.52160404,48.385928 4.34865423,48.2774104 4.2,48.14 C4.10795946,48.0595399 4.05662517,47.9422043 4.06,47.82 C4.07604627,47.7013257 4.13256179,47.5918269 4.22,47.51 C4.3328059,47.3964073 4.46066507,47.2988305 4.6,47.22 C4.7674533,47.1220407 4.9411606,47.0351871 5.12,46.96 L5.71,46.73 L6.29,46.55 L6.79,46.43 L7.21,46.35 L7.58,46.29 L7.9,46.29 L8.17,46.29 L8.66,46.29 C8.29509123,46.081819 7.87994584,45.9780327 7.46,45.99 C6.88450674,45.9342069 6.30480982,45.9375577 5.73,46 C5.05270822,46.1208489 4.38448048,46.2879059 3.73,46.5 C3.09977147,46.7023807 2.48486209,46.9496812 1.89,47.24 C1.39816079,47.470499 0.937770331,47.7628638 0.52,48.11 C0.236600787,48.3269429 0.0498380801,48.6465944 0,49 C0,49.29 0.17,49.56 0.61,49.81 C1.27492387,50.1281895 1.9878635,50.3343 2.72,50.42 C5.42,50.86 8.07,51.16 10.61,51.35 C13.15,51.54 15.6,51.61 17.91,51.6 L17.9,51.6 Z M12.9,41.91 C4.54,44.24 17.94,49 28.55,44.5 C27.5104225,44.1032354 26.5067519,43.6181279 25.55,43.05 C21.8704135,43.8917537 18.0680326,44.0544224 14.33,43.53 C10.8,43.11 12.87,41.91 12.87,41.91 L12.9,41.91 Z M27.31,37.37 C22.5555517,38.4047269 17.6620872,38.6412894 12.83,38.07 C9.25,37.69 11.58,36 11.58,36 C2.4,39 16.69,42.5 29.51,38.75 C28.6793803,38.4488578 27.9201097,37.9789953 27.28,37.37 L27.31,37.37 Z" id="Shape" fill="#FFFFFF"></path>
    </g>
</svg>