<?xml version="1.0" encoding="UTF-8" standalone="no"?>
<svg width="50px" height="20px" viewBox="0 0 50 20" version="1.1" xmlns="http://www.w3.org/2000/svg" xmlns:xlink="http://www.w3.org/1999/xlink">
    <!-- Generator: Sketch 39.1 (31720) - http://www.bohemiancoding.com/sketch -->
    <title>Group</title>
    <desc>Created with Sketch.</desc>
    <defs></defs>
    <g id="Page-1" stroke="none" stroke-width="1" fill="none" fill-rule="evenodd">
        <g id="Group" fill="#FFFFFF">
            <path d="M1.41057377,16.4144543 C1.03188525,16.4087166 0.66877049,16.5636346 0.41057377,16.8406838 C-0.13696721,17.4144543 -0.13696721,18.3160936 0.41057377,18.8898641 C0.66713115,19.170192 1.0302459,19.3283887 1.41057377,19.3242903 C2.2097541,19.3193723 2.85729508,18.672651 2.86139344,17.8734707 C2.8654918,17.4882248 2.71139344,17.117733 2.43516393,16.8488805 C2.16959016,16.5669133 1.79745902,16.4095362 1.41057377,16.4144543" id="Shape"></path>
            <path d="M18.7138525,13.5783887 C18.6941803,14.4849461 18.7384426,15.3915034 18.845,16.2915034 L18.7958197,16.2915034 C18.6646721,16.0456018 18.4187705,15.6357657 18.049918,15.0619952 L8.8204098,0.5947821 L6.0171311,0.5947821 L6.0171311,19.0374051 L8.1810656,19.0374051 L8.1810656,5.717733 C8.2015574,4.8718313 8.1663115,4.0259297 8.0745082,3.1849461 L8.1564754,3.1849461 C8.3097541,3.5882248 8.5015574,3.97511 8.7302459,4.3406838 L18.2466393,19.0382248 L20.8695902,19.0382248 L20.8695902,0.5956018 L18.7220492,0.5956018 L18.7220492,13.5783887 L18.7138525,13.5783887 L18.7138525,13.5783887 Z" id="Shape"></path>
            <polygon id="Shape" points="27.107377 10.627651 33.7713115 10.627651 33.7713115 8.6768313 27.107377 8.6768313 27.107377 2.5456838 34.2959016 2.5456838 34.2959016 0.5866674 24.9516393 0.5866674 24.9516393 19.0292903 34.7221311 19.0292903 34.7221311 17.0702739 27.107377 17.0702739"></polygon>
            <polygon id="Shape" points="36.7466393 2.5456838 42.0745082 2.5456838 42.0745082 19.0292903 44.2302459 19.0292903 44.2302459 2.5456838 49.5417213 2.5456838 49.5417213 0.5866674 36.7466393 0.5866674"></polygon>
        </g>
    </g>
</svg>