<?xml version="1.0" encoding="UTF-8" standalone="no"?>
<svg width="39px" height="19px" viewBox="0 0 39 19" version="1.1" xmlns="http://www.w3.org/2000/svg" xmlns:xlink="http://www.w3.org/1999/xlink">
    <!-- Generator: Sketch 39.1 (31720) - http://www.bohemiancoding.com/sketch -->
    <title>Shape</title>
    <desc>Created with Sketch.</desc>
    <defs></defs>
    <g id="Page-1" stroke="none" stroke-width="1" fill="none" fill-rule="evenodd">
        <path d="M13.51,6.44 C13.3795722,6.16154121 13.2113164,5.90242721 13.01,5.67 C12.8050468,5.43622647 12.5696063,5.2310569 12.31,5.06 C12.0353915,4.87854209 11.7399314,4.73081204 11.43,4.62 C11.085957,4.49908727 10.730944,4.41200862 10.37,4.36 C9.95951037,4.29892947 9.54500604,4.26884448 9.13,4.27 L3.24,4.27 L2.56,7.79 L1.88,11.31 L0.51,18.31 L3.57,18.31 L3.75,17.37 L3.93,16.43 L4.29,14.56 L6.91,14.56 L7.74,14.56 L8.49,14.49 L9.17,14.38 C9.37262763,14.3370588 9.57289577,14.283654 9.77,14.22 C9.95716619,14.1604833 10.140796,14.0903701 10.32,14.01 C10.4984499,13.9264978 10.6720579,13.8330166 10.84,13.73 C11.0127641,13.6259037 11.1796821,13.5123995 11.34,13.39 C11.5034249,13.2648178 11.6602991,13.1313079 11.81,12.99 L12.18,12.63 L12.51,12.25 C12.6166667,12.1166667 12.7133333,11.9833333 12.8,11.85 C12.8866667,11.7166667 12.9733333,11.5766667 13.06,11.43 C13.14,11.29 13.2133333,11.1433333 13.28,10.99 C13.3466667,10.8366667 13.41,10.6833333 13.47,10.53 C13.5233333,10.37 13.5733333,10.21 13.62,10.05 C13.6666667,9.89 13.7066667,9.72333333 13.74,9.55 C13.8189652,9.16117438 13.86579,8.76650845 13.88,8.37 C13.8874753,8.03481157 13.8606693,7.69973685 13.8,7.37 C13.7447438,7.04857364 13.6472322,6.73586393 13.51,6.44 L13.51,6.44 Z M10.57,9.36 C10.5197926,9.61738129 10.4529864,9.87124478 10.37,10.12 C10.2975301,10.3403118 10.2072314,10.5543532 10.1,10.76 C10.0041926,10.9441803 9.89029833,11.1183715 9.76,11.28 C9.63644799,11.4325597 9.49549214,11.5701595 9.34,11.69 C9.18226435,11.8122789 9.01117132,11.9162766 8.83,12 C8.62709598,12.0922613 8.41622927,12.1658973 8.2,12.22 C7.95333535,12.28076 7.70272427,12.3241993 7.45,12.35 C7.16020888,12.3655661 6.86979112,12.3655661 6.58,12.35 L4.73,12.35 L5,10.91 L5.29,9.44 L5.59,8 L5.88,6.53 L8,6.53 C8.2664662,6.51537714 8.5335338,6.51537714 8.8,6.53 C9.01948266,6.55286222 9.2368222,6.59298644 9.45,6.65 C9.62724419,6.69646887 9.79841688,6.76359542 9.96,6.85 C10.0945977,6.922876 10.2162346,7.01748249 10.32,7.13 C10.4214553,7.24177208 10.5026688,7.37036006 10.56,7.51 C10.6221223,7.67056831 10.6624804,7.83872703 10.68,8.01 C10.6988332,8.21289724 10.6988332,8.41710276 10.68,8.62 C10.6629057,8.86859019 10.6295005,9.11578903 10.58,9.36 L10.57,9.36 Z M25.8,9.7 L26.12,8.06 C26.1818045,7.75349252 26.2185923,7.44246839 26.23,7.13 C26.2398791,6.86524616 26.2197509,6.60022498 26.17,6.34 C26.12585,6.11316491 26.0483421,5.89412095 25.94,5.69 C25.8361982,5.49583091 25.701047,5.32013435 25.54,5.17 C25.3663839,5.01284036 25.171047,4.88149317 24.96,4.78 C24.7103959,4.65991191 24.4489933,4.56607508 24.18,4.5 C23.8512816,4.41891114 23.517048,4.36209142 23.18,4.33 C22.7877815,4.29315075 22.3939298,4.27646212 22,4.28 L19.31,4.28 L19.49,3.34 L19.85,1.47 L20.03,0.53 L17,0.53 L15.63,7.53 L14.95,11.05 L14.27,14.57 L17.27,14.57 L18.05,10.57 L18.83,6.57 L21.3,6.57 L21.83,6.57 C21.9748404,6.5828813 22.1185526,6.60627631 22.26,6.64 C22.3741904,6.6673708 22.4849006,6.70762907 22.59,6.76 C22.6759259,6.8029311 22.7537477,6.86045156 22.82,6.93 C22.8816013,7.00029933 22.9291287,7.08177484 22.96,7.17 C22.9974959,7.27306871 23.021038,7.3806895 23.03,7.49 C23.0416162,7.62308033 23.0416162,7.75691967 23.03,7.89 C23.0164603,8.05458325 22.9930852,8.21820895 22.96,8.38 L22.36,11.49 L22.07,13 L21.77,14.56 L24.86,14.56 L25.17,13 L25.49,11.36 L25.8,9.7 Z M38.43,6.44 C38.2996845,6.16147886 38.131419,5.90234999 37.93,5.67 C37.7250468,5.43622647 37.4896063,5.2310569 37.23,5.06 C36.9553915,4.87854209 36.6599314,4.73081204 36.35,4.62 C36.005957,4.49908727 35.650944,4.41200862 35.29,4.36 C34.8795104,4.29892947 34.465006,4.26884448 34.05,4.27 L28.16,4.27 L27.48,7.79 L26.8,11.31 L26.12,14.83 L25.44,18.35 L28.5,18.35 L28.86,16.48 L29.04,15.54 L29.22,14.6 L31.84,14.6 L32.67,14.6 L33.42,14.53 L34.1,14.42 C34.3026276,14.3770588 34.5028958,14.323654 34.7,14.26 C34.8871591,14.200463 35.0707878,14.1303502 35.25,14.05 C35.4284404,13.9664789 35.6020473,13.8729983 35.77,13.77 C35.9427641,13.6659037 36.1096821,13.5523995 36.27,13.43 C36.4334249,13.3048178 36.5902991,13.1713079 36.74,13.03 L37.11,12.67 C37.2233333,12.5433333 37.3333333,12.4166667 37.44,12.29 C37.5466667,12.1633333 37.6433333,12.03 37.73,11.89 C37.8233333,11.7566667 37.91,11.6166667 37.99,11.47 C38.07,11.3233333 38.1433333,11.1766667 38.21,11.03 C38.2766667,10.8833333 38.34,10.73 38.4,10.57 C38.46,10.41 38.51,10.25 38.55,10.09 C38.5966667,9.92333333 38.6366667,9.75666667 38.67,9.59 C38.7489652,9.20117438 38.79579,8.80650845 38.81,8.41 C38.8174753,8.07481157 38.7906693,7.73973685 38.73,7.41 C38.6751741,7.07438771 38.5742186,6.74796505 38.43,6.44 L38.43,6.44 Z M35.5,9.36 C35.4496844,9.6173565 35.38288,9.87121308 35.3,10.12 C35.2274887,10.3402963 35.1371914,10.5543344 35.03,10.76 C34.9341926,10.9441803 34.8202983,11.1183715 34.69,11.28 C34.566448,11.4325597 34.4254921,11.5701595 34.27,11.69 C34.1123134,11.8123501 33.941212,11.9163529 33.76,12 C33.557096,12.0922613 33.3462293,12.1658973 33.13,12.22 C32.8833353,12.28076 32.6327243,12.3241993 32.38,12.35 C32.0902089,12.3655661 31.7997911,12.3655661 31.51,12.35 L29.65,12.35 L29.94,10.88 L30.23,9.41 L30.51,8 L30.8,6.53 L32.9,6.53 C33.1664657,6.51535705 33.4335343,6.51535705 33.7,6.53 C33.9194886,6.55282104 34.1368314,6.59294586 34.35,6.65 C34.5272442,6.69646887 34.6984169,6.76359542 34.86,6.85 C34.9945977,6.922876 35.1162346,7.01748249 35.22,7.13 C35.3214553,7.24177208 35.4026688,7.37036006 35.46,7.51 C35.5221223,7.67056831 35.5624804,7.83872703 35.58,8.01 C35.5987761,8.21289988 35.5987761,8.41710012 35.58,8.62 C35.5694556,8.86814403 35.5427322,9.11533573 35.5,9.36 L35.5,9.36 Z" id="Shape" fill="#FFFFFF"></path>
    </g>
</svg>