<?xml version="1.0" encoding="UTF-8" standalone="no"?>
<svg width="40px" height="40px" viewBox="0 0 40 40" version="1.1" xmlns="http://www.w3.org/2000/svg" xmlns:xlink="http://www.w3.org/1999/xlink">
    <!-- Generator: Sketch 39.1 (31720) - http://www.bohemiancoding.com/sketch -->
    <title>Group</title>
    <desc>Created with Sketch.</desc>
    <defs></defs>
    <g id="Page-1" stroke="none" stroke-width="1" fill="none" fill-rule="evenodd">
        <g id="Group" transform="translate(1.000000, 1.000000)">
            <polygon id="Shape" stroke="#FFFFFF" stroke-width="2" points="0 37.8914286 37.8914286 37.8914286 37.8914286 0 0 0"></polygon>
            <path d="M17.5885714,28.8619048 C17.5885714,30.2914286 17.2538095,30.6714286 16.3128571,30.6714286 C15.3719048,30.6714286 15.0552381,29.9928571 14.6028571,29.1966667 L12.3319048,30.6080952 C12.942619,32.2674286 14.5657619,33.3323333 16.3309524,33.2319048 C18.8733333,33.2319048 20.3028571,31.8838095 20.3028571,28.9071429 L20.3028571,19.3980952 L17.5885714,19.3980952 L17.5885714,28.8619048 L17.5885714,28.8619048 Z" id="Shape" fill="#FFFFFF"></path>
            <path d="M28.6990476,24.7272333 L27.9842857,24.4196143 C26.7538095,23.8858048 26.22,23.5148524 26.22,22.6824714 C26.2263333,21.9930429 26.7909048,21.4393286 27.4803333,21.4465667 C27.5183333,21.4465667 27.5572381,21.4483762 27.5952381,21.4519952 C28.3932381,21.4547095 29.1089048,21.9414714 29.4047619,22.6824714 L31.6395238,21.2529476 C30.8641429,19.7429 29.2618095,18.8417571 27.5680952,18.9639 C25.007619,18.9639 23.37,20.601519 23.37,22.7548524 C23.37,25.0891381 24.7452381,26.1929476 26.8080952,27.0705667 L27.5228571,27.3781857 C28.8347619,27.9481857 29.6128571,28.2829476 29.6128571,29.2781857 C29.6128571,30.101519 28.8528571,30.6896143 27.667619,30.6896143 C26.4715238,30.6995667 25.3749524,30.0246143 24.8447619,28.9524714 L22.5104762,30.3014714 C23.522,32.2213762 25.5658571,33.3686143 27.7309524,33.2329 C30.4452381,33.2329 32.4809524,31.8214714 32.4809524,29.2429 C32.5080952,26.8353286 31.16,25.731519 28.6990476,24.7272333" id="Shape" fill="#FFFFFF"></path>
        </g>
    </g>
</svg>