<?xml version="1.0" encoding="UTF-8" standalone="no"?>
<svg width="48px" height="49px" viewBox="0 0 48 49" version="1.1" xmlns="http://www.w3.org/2000/svg" xmlns:xlink="http://www.w3.org/1999/xlink">
    <!-- Generator: Sketch 39.1 (31720) - http://www.bohemiancoding.com/sketch -->
    <title>Shape</title>
    <desc>Created with Sketch.</desc>
    <defs></defs>
    <g id="Page-1" stroke="none" stroke-width="1" fill="none" fill-rule="evenodd">
        <path d="M17.64,4.21 C17.0428615,4.19781097 16.4977078,4.54813347 16.2606972,5.09635695 C16.0236867,5.64458044 16.1419404,6.28171032 16.5598929,6.7083702 C16.9778455,7.13503009 17.612402,7.26639395 18.1653952,7.04073616 C18.7183885,6.81507837 19.0798756,6.2772629 19.08,5.68 C19.0855716,4.87751934 18.442425,4.22097381 17.64,4.21 L17.64,4.21 Z M40.64,12.88 L36.38,12.88 L36.38,17.88 C36.3388853,21.7520555 33.2504823,24.9022266 29.38,25.02 L18.1,25.02 C14.980689,25.0797717 12.4802981,27.6201334 12.47,30.74 L12.47,41.89 C12.47,44.94 15.12,46.73 18.1,47.61 C19.9117027,48.1665211 21.7947974,48.456228 23.69,48.47 C25.6080364,48.454862 27.5140314,48.1652585 29.35,47.61 C32.18,46.79 34.98,45.14 34.98,41.89 L34.98,37.6 L23.73,37.6 L23.73,35.74 L40.6,35.74 C43.87,35.74 45.09,33.46 46.23,30.03 C47.37,26.6 47.36,23.11 46.23,18.59 C45.42,15.34 43.88,12.89 40.6,12.89 L40.64,12.88 Z M17.68,23.18 L28.92,23.18 C30.4255358,23.1694375 31.8650561,22.560527 32.9211819,21.4875182 C33.9773077,20.4145094 34.5633137,18.965514 34.55,17.46 L34.55,6.31 C34.54,3.26 32,1 28.92,0.46 C27.0356955,0.151712321 25.129356,-0.0021326234 23.22,5.11368698e-15 L23.05,5.11368698e-15 C21.2469384,0.00215213873 19.4472555,0.156028371 17.67,0.46 C12.91,1.3 12,3.06 12,6.31 L12,10.6 L23.3,10.6 L23.3,12.46 L7.82,12.46 C4.40642345,12.4016197 1.4486662,14.8143046 0.82,18.17 C-0.238694249,21.9098521 -0.238694249,25.8701479 0.82,29.61 C1.62,32.94 3.53,35.32 6.82,35.32 L10.69,35.32 L10.69,30.17 C10.7746748,26.345152 13.855152,23.2646748 17.68,23.18 L17.68,23.18 Z M29.35,43.94 C29.9471385,43.952189 30.4922922,43.6018665 30.7293028,43.053643 C30.9663133,42.5054196 30.8480596,41.8682897 30.4301071,41.4416298 C30.0121545,41.0149699 29.377598,40.8836061 28.8246048,41.1092638 C28.2716115,41.3349216 27.9101244,41.8727371 27.91,42.47 C27.9044284,43.2724807 28.547575,43.9290262 29.35,43.94 L29.35,43.94 Z" id="Shape" fill="#FFFFFF"></path>
    </g>
</svg>